<svg id="Layer_1" data-name="Layer 1" xmlns="http://www.w3.org/2000/svg" viewBox="0 0 1920 1080"><defs><style>.cls-1{fill:#ed1c24;}</style></defs><path d="M251.38,832.42V814H188.94v95.77h23.15V871h30.34v-17.6H212.09v-21Z"/><path d="M263.29,834.18v75.59h23.18V834.18Zm21.69-30c-2.53-2.3-5.88-3.45-10-3.45s-7.51,1.15-10,3.45a11.35,11.35,0,0,0-3.79,8.75,11.16,11.16,0,0,0,3.79,8.6q3.79,3.45,10,3.45c4.14,0,7.49-1.15,10-3.45a11.19,11.19,0,0,0,3.79-8.6A11.39,11.39,0,0,0,285,804.17Z"/><path d="M336.79,837.44a32.94,32.94,0,0,0-11.19,11V834.18H302.45v75.59H325.6v-34.4q0-9.37,5.1-13.28T345,858.15h6.62V833.36A28.42,28.42,0,0,0,336.79,837.44Z"/><path d="M419.61,875.77a23.47,23.47,0,0,0-9.61-6.84,117.11,117.11,0,0,0-14.23-4.14,58.32,58.32,0,0,1-11.71-3.52q-3.74-1.75-3.73-5.29a6,6,0,0,1,2-4.81c1.36-1.13,3.35-1.68,6-1.68a12.93,12.93,0,0,1,8.32,2.64,12,12,0,0,1,4.27,7.24H422.6a31.22,31.22,0,0,0-10.78-19q-8.6-7.18-22.95-7.18-14.1,0-21.82,6.3A20.26,20.26,0,0,0,359.33,856q0,7.88,3.93,12.4a22.92,22.92,0,0,0,9.35,6.57,95.86,95.86,0,0,0,13.83,3.79,67.34,67.34,0,0,1,12.1,3.6,5.79,5.79,0,0,1,3.74,5.61,6.13,6.13,0,0,1-2,4.81,8.61,8.61,0,0,1-6,1.84A15.52,15.52,0,0,1,385,892a10,10,0,0,1-4.12-7.45H358.53q2,12.62,11.24,19.39t24.52,6.76A39.71,39.71,0,0,0,410,907.87,23.17,23.17,0,0,0,420.15,900a19.46,19.46,0,0,0,3.52-11.51C423.67,883.16,422.33,878.93,419.61,875.77Z"/><path d="M472,889.85c-2.89,0-4.94-.58-6.17-1.76s-1.82-3.24-1.82-6.23V853.68h15.17v-19.5H464.05V815.62H440.87v18.56H430.72v19.5h10.15v27.78q0,15.16,7.4,21.74t20.65,6.57h10.44V889.85Z"/><path d="M576.12,885.25A23.21,23.21,0,0,1,562.79,889a20.4,20.4,0,0,1-16.39-7.39c-4.16-4.9-6.23-11.53-6.23-19.84s2.07-14.94,6.23-19.91a20.33,20.33,0,0,1,16.39-7.45,23.21,23.21,0,0,1,13.33,3.8,22.4,22.4,0,0,1,8.34,10.42H609q-3.53-16.38-15.51-26t-30.26-9.61q-14,0-24.52,6.15a41.83,41.83,0,0,0-16.32,17.27,58.51,58.51,0,0,0,0,50.67,41.75,41.75,0,0,0,16.32,17.26q10.58,6.17,24.52,6.16,18.27,0,30.26-9.67T609,875H584.46A22.49,22.49,0,0,1,576.12,885.25Z"/><path d="M691.4,851.39a34.24,34.24,0,0,0-13.95-13.49,45.81,45.81,0,0,0-40.3,0,34.17,34.17,0,0,0-14,13.49,44.27,44.27,0,0,0,0,41.18,34.1,34.1,0,0,0,14,13.46,45.72,45.72,0,0,0,40.3,0,34.17,34.17,0,0,0,13.95-13.46A40.48,40.48,0,0,0,696.47,872Q696.47,860.19,691.4,851.39Zm-22.95,34.4a14.68,14.68,0,0,1-11.11,4.75,14.9,14.9,0,0,1-11.19-4.75q-4.53-4.74-4.54-13.81t4.54-13.89a14.81,14.81,0,0,1,11.19-4.81,14.6,14.6,0,0,1,11.11,4.81q4.45,4.8,4.46,13.89T668.45,885.79Z"/><path d="M761.37,834.18v13.68a23.67,23.67,0,0,0-9.22-10.71,27.53,27.53,0,0,0-14.9-3.92,30.8,30.8,0,0,0-16.74,4.67,32.13,32.13,0,0,0-11.64,13.41Q704.61,860,704.61,872a46.83,46.83,0,0,0,4.26,20.59A31.91,31.91,0,0,0,720.51,906a30.56,30.56,0,0,0,16.74,4.68,27.37,27.37,0,0,0,14.9-3.93,23.57,23.57,0,0,0,9.22-10.69v13.68h23V834.18Zm-4.68,51.2a15.69,15.69,0,0,1-12,5c-5,0-9-1.62-12-4.88s-4.54-7.76-4.54-13.54,1.52-10.31,4.54-13.55a15.6,15.6,0,0,1,12-4.88,15.8,15.8,0,0,1,12,4.94q4.66,4.95,4.68,13.49C761.37,877.57,759.8,882.05,756.69,885.38Z"/><path d="M858.62,875.77a23.5,23.5,0,0,0-9.62-6.84,117.11,117.11,0,0,0-14.23-4.14,58.53,58.53,0,0,1-11.71-3.52q-3.73-1.75-3.73-5.29a6,6,0,0,1,2-4.81c1.36-1.13,3.35-1.68,6-1.68a12.92,12.92,0,0,1,8.33,2.64,12,12,0,0,1,4.27,7.24H861.6a31.17,31.17,0,0,0-10.78-19q-8.6-7.18-23-7.18-14.1,0-21.81,6.3A20.18,20.18,0,0,0,798.34,856q0,7.88,3.92,12.4a23,23,0,0,0,9.35,6.57,96.25,96.25,0,0,0,13.81,3.79,67.57,67.57,0,0,1,12.13,3.6,5.78,5.78,0,0,1,3.73,5.61,6.19,6.19,0,0,1-2,4.81,8.61,8.61,0,0,1-6,1.84A15.52,15.52,0,0,1,824,892a10,10,0,0,1-4.12-7.45H797.53q2,12.62,11.25,19.39t24.51,6.76A39.67,39.67,0,0,0,849,907.87,23.17,23.17,0,0,0,859.15,900a19.47,19.47,0,0,0,3.53-11.51C862.68,883.16,861.32,878.93,858.62,875.77Z"/><path d="M911,889.85c-2.89,0-4.94-.58-6.17-1.76s-1.84-3.24-1.84-6.23V853.68h15.19v-19.5H903V815.62H879.88v18.56H869.72v19.5h10.16v27.78q0,15.16,7.39,21.74c4.9,4.38,11.8,6.57,20.65,6.57h10.44V889.85Z"/><path d="M1038,814.67l-25.34,66.25-25.86-66.25H958.45v95.1h23.16V850.16l20.72,59.61h20L1043,850.29v59.48h23.17v-95.1Z"/><path d="M1134.94,834.18v13.68a23.67,23.67,0,0,0-9.22-10.71,27.49,27.49,0,0,0-14.9-3.92,30.73,30.73,0,0,0-16.72,4.67,32.09,32.09,0,0,0-11.65,13.41q-4.28,8.73-4.27,20.67a46.69,46.69,0,0,0,4.27,20.59A31.87,31.87,0,0,0,1094.1,906a30.49,30.49,0,0,0,16.72,4.68,27.32,27.32,0,0,0,14.9-3.93,23.57,23.57,0,0,0,9.22-10.69v13.68h23V834.18Zm-4.68,51.2a17,17,0,0,1-24,.14c-3-3.26-4.52-7.76-4.52-13.54s1.5-10.31,4.52-13.55a17.09,17.09,0,0,1,24,.06q4.7,4.95,4.68,13.49C1134.94,877.57,1133.39,882.05,1130.26,885.38Z"/><path d="M1209.43,889.85c-2.89,0-4.94-.58-6.15-1.76s-1.84-3.24-1.84-6.23V853.68h15.17v-19.5h-15.17V815.62h-23.16v18.56h-10.15v19.5h10.15v27.78q0,15.16,7.38,21.74t20.67,6.57h10.42V889.85Z"/><path d="M1298.36,842q-7.66-8.68-20.66-8.68a28.5,28.5,0,0,0-15.1,3.93,24.9,24.9,0,0,0-9.69,10.71V809.53h-23.16V909.77h23.16V869.68q0-8.28,4.14-12.74c2.76-3,6.47-4.48,11.16-4.48a14,14,0,0,1,10.65,4.27c2.67,2.85,4,6.8,4,11.86v41.18H1306V865.89Q1306,850.71,1298.36,842Z"/><path d="M1405.09,885.25a23.21,23.21,0,0,1-13.33,3.79,20.4,20.4,0,0,1-16.39-7.39c-4.16-4.9-6.23-11.53-6.23-19.84s2.07-14.94,6.23-19.91a20.33,20.33,0,0,1,16.39-7.45,23.21,23.21,0,0,1,13.33,3.8,22.47,22.47,0,0,1,8.34,10.42h24.51q-3.53-16.38-15.51-26t-30.27-9.61q-14,0-24.51,6.15a41.83,41.83,0,0,0-16.32,17.27,58.51,58.51,0,0,0,0,50.67,41.75,41.75,0,0,0,16.32,17.26q10.56,6.17,24.51,6.16,18.28,0,30.27-9.67T1437.94,875h-24.51A22.55,22.55,0,0,1,1405.09,885.25Z"/><path d="M1451,809.53V909.77h23.16V809.53Z"/><path d="M1490.1,834.18v75.59h23.16V834.18Zm21.66-30q-3.78-3.45-10-3.45t-10,3.45a11.35,11.35,0,0,0-3.79,8.75,11.16,11.16,0,0,0,3.79,8.6q3.8,3.45,10,3.45t10-3.45a11.17,11.17,0,0,0,3.8-8.6A11.36,11.36,0,0,0,1511.76,804.17Z"/><path d="M1597.84,842c-5.09-5.79-12-8.68-20.64-8.68a28.52,28.52,0,0,0-15.12,3.93,25,25,0,0,0-9.69,10.71V834.18h-23.16v75.59h23.16V869.68q0-8.28,4.14-12.74c2.76-3,6.47-4.48,11.18-4.48a13.94,13.94,0,0,1,10.64,4.27q4,4.28,4,11.86v41.18h23.18V865.89Q1605.51,850.71,1597.84,842Z"/><path d="M1620.81,834.18v75.59H1644V834.18Zm21.66-30q-3.78-3.45-10-3.45c-4.16,0-7.51,1.15-10,3.45a11.29,11.29,0,0,0-3.79,8.75,11.09,11.09,0,0,0,3.79,8.6c2.51,2.3,5.86,3.45,10,3.45s7.49-1.15,10-3.45a11.17,11.17,0,0,0,3.8-8.6A11.36,11.36,0,0,0,1642.47,804.17Z"/><path d="M1702.08,888.09a13.18,13.18,0,0,1-8.54,2.72,12.38,12.38,0,0,1-10-4.81q-3.93-4.83-3.92-14t3.92-14a12.38,12.38,0,0,1,10-4.81,12.41,12.41,0,0,1,13,10.28h24.51q-2.58-14.07-12.47-22.14t-24.51-8.06a41.15,41.15,0,0,0-19.77,4.67,33,33,0,0,0-13.49,13.41Q1656,860,1656,872a41.88,41.88,0,0,0,4.88,20.59A33.25,33.25,0,0,0,1674.37,906a40.5,40.5,0,0,0,19.71,4.68q14.63,0,24.51-8.05t12.47-22.16h-24.51A13.06,13.06,0,0,1,1702.08,888.09Z"/><path d="M435.78,409.64V336.82H188.94V715.41h91.55V562.25h120V492.64H280.49v-83Z"/><path d="M707,618.49q-22.22,15-52.73,15-40.17,0-64.8-29.17t-24.64-78.45q0-49.26,24.64-78.71t64.8-29.44q30.51,0,52.73,15t32.94,41.24h96.91q-13.9-64.8-61.3-102.82t-119.68-38q-55.15,0-96.92,24.37t-64.53,68.26q-22.76,43.91-22.75,100.13T494.41,626q22.75,43.89,64.53,68.26t96.92,24.37q72.3,0,119.68-38.29t61.3-102.54H739.93A89.41,89.41,0,0,1,707,618.49Z"/><path d="M1222.38,585.54V715.41h91.56V439.22ZM888.25,715.41h91.56V584.49L888.25,438.18Z"/><path d="M1601.22,618.49q-22.24,15-52.76,15-40.12,0-64.78-29.17t-24.63-78.45q0-49.26,24.63-78.71t64.78-29.44q30.52,0,52.76,15t32.92,41.24h96.92q-13.93-64.8-61.31-102.82t-119.68-38q-55.15,0-96.92,24.37t-64.51,68.26q-22.79,43.91-22.76,100.13T1388.64,626q22.75,43.89,64.51,68.26t96.92,24.37q72.3,0,119.68-38.29t61.31-102.54h-96.92A89.37,89.37,0,0,1,1601.22,618.49Z"/><polygon class="cls-1" points="1061.74 715.4 1140.98 715.4 1306.02 250.85 1731.06 250.85 1731.06 169.29 1244.66 169.29 1102.43 601.35 937.69 169.29 867.25 169.29 1061.74 715.4"/></svg>